<svg width="56" height="56" viewBox="0 0 56 56" fill="none" xmlns="http://www.w3.org/2000/svg">
<g id="Flutter">
<path id="Vector" d="M32.8627 2.36133L7.539 27.6827L15.3393 35.483L48.461 2.36133H32.8627Z" fill="#42A5F5" fill-opacity="0.8"/>
<path id="Vector_2" d="M50.6217 25.837H34.0713L27.8717 31.92L36.148 40.0447L50.6217 25.837Z" fill="#42A5F5" fill-opacity="0.8"/>
<path id="Vector_3" d="M27.8717 48.1647L34.0713 54.25H50.6217L36.148 40.0447L27.8717 48.1647Z" fill="#0D47A1"/>
<path id="Vector_4" d="M19.614 40.0493L27.8787 31.9363L36.1433 40.047L27.8787 48.16L19.614 40.0493Z" fill="#42A5F5"/>
<path id="Vector_5" d="M27.8787 48.1577L36.1433 40.047L37.296 41.1787L29.0313 49.2893L27.8787 48.1577Z" fill="url(#paint0_linear_5_80)"/>
<path id="Vector_6" d="M27.8717 48.1647L40.152 43.9997L36.148 40.04L27.8717 48.1647Z" fill="url(#paint1_linear_5_80)"/>
<path id="Vector_7" d="M49.5833 56H33.621C33.1543 56 32.7063 55.8133 32.3773 55.4797L18.3703 41.3257C17.6937 40.6443 17.696 39.5453 18.3703 38.8617L32.3797 24.7357C32.7087 24.4043 33.1567 24.2153 33.6257 24.2153H49.5833C50.2903 24.2153 50.9273 24.64 51.198 25.291C51.4687 25.942 51.324 26.6957 50.827 27.195L38.059 40.0983L50.827 53.0157C51.324 53.5173 51.4687 54.2687 51.198 54.9197C50.9273 55.5753 50.2903 56 49.5833 56ZM34.3513 52.5H45.3927L34.3537 41.3303C33.6793 40.649 33.6793 39.55 34.3537 38.8687L45.388 27.7177H34.3537L22.0757 40.096L34.3513 52.5ZM15.5937 37.8443C15.127 37.8443 14.679 37.6577 14.35 37.324L6.33967 29.2297C5.66534 28.5483 5.66534 27.4493 6.33967 26.768L32.3493 0.517993C32.7693 0.0956593 33.3527 -0.0653407 33.8963 0.0256593H49.5483C50.2553 0.0256593 50.8923 0.450326 51.163 1.10133C51.4337 1.75233 51.289 2.50599 50.792 3.00533L16.8373 37.3263C16.5083 37.6577 16.0603 37.8443 15.5937 37.8443ZM10.0473 28.0023L15.5937 33.607L45.3553 3.52566H34.2953L10.0473 28.0023Z" fill="black"/>
</g>
<defs>
<linearGradient id="paint0_linear_5_80" x1="31.767" y1="44.0492" x2="33.0061" y2="45.2883" gradientUnits="userSpaceOnUse">
<stop offset="0.2" stop-opacity="0.15"/>
<stop offset="0.85" stop-color="#616161" stop-opacity="0.01"/>
</linearGradient>
<linearGradient id="paint1_linear_5_80" x1="27.5947" y1="43.8311" x2="40.7848" y2="43.8311" gradientUnits="userSpaceOnUse">
<stop offset="0.2" stop-opacity="0.55"/>
<stop offset="0.85" stop-color="#616161" stop-opacity="0.01"/>
</linearGradient>
</defs>
</svg>
